<?xml version="1.0" standalone="no"?>
<!DOCTYPE svg PUBLIC "-//W3C//DTD SVG 20010904//EN"
 "http://www.w3.org/TR/2001/REC-SVG-20010904/DTD/svg10.dtd">
<svg version="1.0" xmlns="http://www.w3.org/2000/svg"
 width="70.000000pt" height="70.000000pt" viewBox="0 0 70.000000 70.000000"
 preserveAspectRatio="xMidYMid meet">
<metadata>
Created by potrace 1.14, written by Peter Selinger 2001-2017
</metadata>
<g transform="translate(0.000000,70.000000) scale(0.100000,-0.100000)"
fill="#000000" stroke="none">
<path d="M253 686 c-103 -34 -176 -98 -222 -196 -22 -46 -26 -69 -26 -140 0
-76 4 -93 33 -152 38 -77 92 -130 171 -167 47 -22 70 -26 141 -26 71 0 94 4
140 26 82 39 135 90 172 167 29 59 33 76 33 152 0 71 -4 94 -26 141 -58 124
-169 199 -302 205 -43 3 -89 -2 -114 -10z m243 -91 c128 -75 175 -240 107
-373 -15 -30 -33 -57 -39 -59 -9 -3 -194 441 -194 467 0 13 82 -9 126 -35z
m-252 -177 c-117 -295 -103 -267 -121 -243 -81 106 -74 264 16 367 36 42 122
88 162 88 l26 0 -83 -212z m141 3 c20 -51 33 -96 30 -100 -12 -11 -146 -8
-142 3 26 75 72 195 74 193 1 -2 18 -45 38 -96z m67 -171 c2 -3 16 -36 30 -73
l27 -69 -47 -21 c-63 -28 -161 -27 -227 2 -37 16 -46 25 -41 38 4 10 16 43 28
74 l22 56 102 -1 c56 -1 104 -3 106 -6z"/>
</g>
</svg>
